HIERARCHY
ROOT hip
{
	OFFSET 0.000000 0.000000 0.000000 
	CHANNELS 6 Xposition Yposition Zposition Xrotation Zrotation Yrotation
	JOINT abdomen
	{
		OFFSET 0.000000 3.402643 0.000000 
		CHANNELS 3 Xrotation Zrotation Yrotation
		JOINT chest
		{
			OFFSET 0.000000 8.438565 -0.680529 
			CHANNELS 3 Xrotation Zrotation Yrotation
			JOINT neck
			{
				OFFSET 0.000000 10.207942 -0.272212 
				CHANNELS 3 Xrotation Zrotation Yrotation
				JOINT head
				{
					OFFSET 0.000000 3.130431 0.000000 
					CHANNELS 3 Xrotation Zrotation Yrotation
					End Site
					{
						OFFSET 0.000000 3.130435 0.000000 
					}
				}
			}
			JOINT lCollar
			{
				OFFSET 3.470700 6.669187 -0.816635 
				CHANNELS 3 Yrotation Zrotation Xrotation
				JOINT lShldr
				{
					OFFSET 3.198488 0.000000 0.000000 
					CHANNELS 3 Zrotation Yrotation Xrotation
					JOINT lForeArm
					{
						OFFSET 10.139888 0.000000 0.000000 
						CHANNELS 3 Yrotation Zrotation Xrotation
						JOINT lHand
						{
							OFFSET 8.370511 0.000000 0.000000 
							CHANNELS 3 Zrotation Yrotation Xrotation
							End Site
							{
								OFFSET 4.083176 0.000000 0.000000 
							}
						}
					}
				}
			}
			JOINT rCollar
			{
				OFFSET -3.470700 6.669187 -0.816635 
				CHANNELS 3 Yrotation Zrotation Xrotation
				JOINT rShldr
				{
					OFFSET -3.198488 0.000000 0.000000 
					CHANNELS 3 Zrotation Yrotation Xrotation
					JOINT rForeArm
					{
						OFFSET -10.139888 0.000000 0.000000 
						CHANNELS 3 Yrotation Zrotation Xrotation
						JOINT rHand
						{
							OFFSET -8.370511 0.000000 0.000000 
							CHANNELS 3 Zrotation Yrotation Xrotation
							End Site
							{
								OFFSET -4.083176 0.000000 0.000000 
							}
						}
					}
				}
			}
		}
	}
	JOINT lThigh
	{
		OFFSET 5.308129 -1.633274 1.361059 
		CHANNELS 3 Xrotation Zrotation Yrotation
		JOINT lShin
		{
			OFFSET -2.041588 -20.007561 0.000000 
			CHANNELS 3 Xrotation Zrotation Yrotation
			JOINT lFoot
			{
				OFFSET 0.000000 -19.190928 -1.224953 
				CHANNELS 3 Xrotation Yrotation Zrotation
				End Site
				{
					OFFSET 0.000000 -2.449906 4.627600 
				}
			}
		}
	}
	JOINT rThigh
	{
		OFFSET -5.308129 -1.633274 1.361059 
		CHANNELS 3 Xrotation Zrotation Yrotation
		JOINT rShin
		{
			OFFSET 2.041588 -20.007561 0.000000 
			CHANNELS 3 Xrotation Zrotation Yrotation
			JOINT rFoot
			{
				OFFSET 0.000000 -19.190928 -1.224953 
				CHANNELS 3 Xrotation Yrotation Zrotation
				End Site
				{
					OFFSET 0.000000 -2.449906 4.627600 
				}
			}
		}
	}
}
MOTION
Frames: 16
Frame Time: 0.011111
-28.831408 50.940086 6.437142 2.617567 -0.975544 37.308758 0.000000 0.000000 0.000000 7.842257 -0.619155 -1.101003 2.836223 -6.024960 -5.598748 1.962745 -0.378304 -5.893458 -4.807918 -5.749190 -0.418402 -36.682892 -7.425148 5.182376 -66.031578 20.901007 13.485383 17.495804 -4.312073 -19.995810 -7.104659 11.081466 0.393819 37.894714 31.747324 49.775543 44.069878 -39.410427 15.697614 -11.508263 6.602689 -36.497696 -5.882792 -1.220209 4.345096 11.178939 -9.268518 -1.522650 -5.170613 5.903639 12.186467 -22.535587 -8.173001 5.038826 44.328953 -0.092337 20.348173 -11.100210 -0.116436 2.664214 
-28.762083 50.969810 6.579164 2.598217 -1.190182 37.777836 0.000000 0.000000 0.000000 8.115395 -0.357710 -1.086224 2.952821 -5.845966 -5.581061 1.855019 -0.659462 -5.849707 -4.966569 -5.935407 -0.420581 -36.946758 -7.088289 4.958065 -66.689285 21.366261 13.988839 17.858334 -3.758917 -21.266077 -6.807730 11.150092 0.355615 37.702740 31.999823 49.259964 43.950340 -39.340012 15.607341 -11.637706 6.767295 -36.885891 -6.025140 -0.966636 4.007807 11.510707 -9.383036 -1.309162 -5.154829 5.589617 12.102882 -22.801182 -7.733869 5.160644 41.951855 -0.484720 20.360996 -10.181411 -0.800442 3.773854 
-28.691280 50.985233 6.719540 2.608174 -1.375527 38.257446 0.000000 0.000000 0.000000 8.378927 -0.125598 -1.043911 3.099149 -5.679513 -5.584976 1.747212 -0.892014 -5.820497 -5.155128 -6.150612 -0.429458 -37.156361 -6.748096 4.805401 -67.343849 21.785362 14.471525 18.065025 -3.266967 -22.400650 -6.519548 11.167864 0.330692 37.480057 32.207287 48.752522 43.875511 -39.210369 15.547212 -11.601820 7.070443 -37.060566 -6.254360 -0.702719 3.559511 11.969436 -9.610572 -0.956325 -5.204525 5.205028 12.079956 -22.926638 -7.381924 5.177739 39.327923 -0.891876 20.341097 -9.216188 -1.311662 4.862103 
-28.618742 50.984909 6.859390 2.647443 -1.541323 38.766392 0.000000 0.000000 0.000000 8.613288 0.067588 -0.976079 3.285108 -5.545047 -5.612235 1.639391 -1.075989 -5.825632 -5.344061 -6.370116 -0.500046 -37.340870 -6.385947 4.743626 -67.980659 22.153551 14.922423 18.106880 -2.865782 -23.370165 -6.220531 11.147932 0.289862 37.232605 32.370174 48.270569 43.827278 -39.105396 15.478498 -11.449233 7.482290 -36.973389 -6.533831 -0.449240 3.094146 12.481177 -9.899858 -0.550652 -5.313973 4.799506 12.053420 -22.921856 -7.146851 5.115370 36.541164 -1.274685 20.377628 -8.225572 -1.651342 5.934793 
-28.543911 50.967777 7.000324 2.706213 -1.658306 39.296379 0.000000 0.000000 0.000000 8.818432 0.231604 -0.862468 3.510952 -5.463490 -5.673688 1.551175 -1.201779 -5.866995 -5.553071 -6.614105 -0.516759 -37.471767 -6.050999 4.695117 -68.468086 22.333937 15.252082 18.256023 -2.452933 -24.110905 -5.950245 11.067488 0.270212 36.948231 32.482613 47.821598 43.833469 -38.958599 15.440760 -11.238088 7.943566 -36.628883 -6.876508 -0.185570 2.593020 13.137595 -10.341117 -0.160338 -5.540286 4.393343 12.097998 -22.809185 -7.011092 4.999541 33.578705 -1.556091 20.429695 -7.176346 -1.759518 7.003873 
-28.466084 50.933270 7.144199 2.804052 -1.755709 39.874702 0.000000 0.000000 0.000000 8.994308 0.347240 -0.726230 3.776516 -5.423582 -5.759431 1.482645 -1.259742 -5.936427 -5.762259 -6.850279 -0.515961 -37.562824 -5.762811 4.677700 -68.887741 22.416353 15.496936 18.153654 -2.191027 -24.583500 -5.709219 10.947135 0.260876 36.628948 32.569359 47.410435 43.843235 -38.800262 15.384371 -10.968269 8.454236 -36.048019 -7.277106 0.107212 2.123720 13.906679 -10.876574 0.091893 -5.863655 4.042976 12.151546 -22.575815 -7.030667 4.859133 30.531796 -1.701989 20.502050 -6.079698 -1.657867 8.020441 
-28.384708 50.881145 7.292982 2.911601 -1.804310 40.484158 0.000000 0.000000 0.000000 9.140890 0.433873 -0.574647 4.062232 -5.425364 -5.868335 1.463055 -1.279068 -6.040992 -5.981635 -7.078373 -0.594608 -37.612110 -5.491027 4.771091 -69.230431 22.467463 15.683098 17.684040 -2.160117 -24.771841 -5.527148 10.779879 0.239406 36.294350 32.635490 47.102264 43.835812 -38.650963 15.341823 -10.649685 9.033681 -35.257866 -7.716953 0.409765 1.664794 14.815599 -11.551437 0.156127 -6.281420 3.829958 12.207179 -22.222422 -7.176940 4.737762 27.427593 -1.658471 20.585411 -4.927678 -1.381316 8.899447 
-28.299587 50.811436 7.448603 3.038633 -1.813854 41.143703 0.000000 0.000000 0.000000 9.258142 0.481921 -0.399881 4.368116 -5.441018 -6.009324 1.502127 -1.279177 -6.159051 -6.161511 -7.284576 -0.598954 -37.628166 -5.325323 4.847710 -69.335197 22.283411 15.664264 17.322077 -2.136956 -24.653708 -5.394438 10.586847 0.188106 35.931561 32.676598 46.905048 43.772396 -38.464485 15.236425 -10.310843 9.593683 -34.329842 -8.191590 0.742280 1.254536 15.895546 -12.375428 0.011433 -6.817713 3.691031 12.292180 -21.748676 -7.468475 4.646024 24.408783 -1.417820 20.619068 -3.790413 -0.998904 9.556266 
-28.211029 50.724277 7.612739 3.165582 -1.774634 41.854736 0.000000 0.000000 0.000000 9.355830 0.501058 -0.229866 4.654514 -5.448382 -6.156685 1.629111 -1.279527 -6.308371 -6.302095 -7.481514 -0.599732 -37.583977 -5.273259 4.986482 -69.305916 22.053673 15.548635 16.563362 -2.354509 -24.200672 -5.341485 10.386279 0.227644 35.458462 32.772800 46.683914 43.695572 -38.047592 15.099771 -9.990376 10.055733 -33.316761 -8.724102 1.112638 0.942218 17.153488 -13.293376 -0.346805 -7.438400 3.640207 12.379366 -21.185778 -7.879265 4.595827 21.546957 -0.977738 20.492485 -2.739552 -0.547505 9.914717 
-28.119881 50.619862 7.786456 3.292477 -1.706165 42.616459 0.000000 0.000000 0.000000 9.443696 0.481664 -0.076055 4.911691 -5.457290 -6.311267 1.853750 -1.289829 -6.458724 -6.373345 -7.633931 -0.645115 -37.475773 -5.333942 5.228293 -69.132530 21.766764 15.350526 15.523233 -2.732011 -23.496544 -5.327763 10.163575 0.195674 35.031265 32.862778 46.618481 43.513477 -37.820415 14.906756 -9.484066 10.704889 -32.213192 -9.289238 1.561044 0.685631 18.594627 -14.369975 -0.829016 -8.087327 3.508136 12.463825 -20.542095 -8.377241 4.562231 18.969906 -0.401794 20.147987 -1.893765 -0.067050 9.891916 
-28.027580 50.498684 7.969770 3.399746 -1.588997 43.430767 0.000000 0.000000 0.000000 9.541291 0.433374 0.053383 5.119381 -5.444101 -6.441762 2.176022 -1.319780 -6.579890 -6.306107 -7.754361 -0.619759 -37.302681 -5.547800 5.454865 -68.727348 21.286598 14.991834 14.530946 -3.088222 -22.589842 -5.304396 9.949718 0.172708 34.520645 32.937477 46.539646 43.310795 -37.386162 14.690977 -8.946566 11.246613 -31.127474 -9.906984 2.098244 0.503647 20.269302 -15.613691 -1.338241 -8.718684 3.241510 12.536231 -19.826700 -8.913457 4.546987 16.801205 0.252856 19.548468 -1.376976 0.434380 9.421200 
-27.936131 50.361862 8.161431 3.477651 -1.432904 44.287716 0.000000 0.000000 0.000000 9.648636 0.365844 0.169680 5.239411 -5.409586 -6.609834 2.605751 -1.349994 -6.742982 -6.248147 -7.830544 -0.639776 -37.058735 -5.903139 5.756089 -68.212372 20.754940 14.559552 13.285227 -3.573660 -21.522346 -5.400095 9.730985 0.216471 33.913227 33.063019 46.369141 43.105896 -36.815624 14.429275 -8.309624 11.769268 -30.043901 -10.596639 2.741266 0.394132 22.193987 -16.995579 -1.805264 -9.290272 2.698522 12.590447 -19.105022 -9.450557 4.465772 15.131096 0.926778 18.771843 -1.320933 0.877954 8.492031 
-27.847801 50.211533 8.359068 3.516473 -1.257394 45.176449 0.000000 0.000000 0.000000 9.785265 0.269459 0.251596 5.260912 -5.353415 -6.749058 3.103776 -1.419220 -6.884892 -6.090868 -7.860362 -0.631520 -36.727020 -6.362372 6.023992 -67.581902 20.076719 14.030113 12.086665 -4.008148 -20.378672 -5.476039 9.526533 0.210284 33.328678 33.165619 46.205624 42.825840 -36.347969 14.128878 -7.436187 12.459150 -28.958479 -11.364291 3.543588 0.362736 24.372978 -18.520069 -2.181660 -9.744790 1.872184 12.550807 -18.434074 -9.959503 4.316266 14.047184 1.561321 17.951193 -1.757256 1.276075 7.174615 
-27.764736 50.051109 8.559644 3.516231 -1.062450 46.067360 0.000000 0.000000 0.000000 9.960974 0.153895 0.320023 5.202808 -5.269629 -6.822651 3.611525 -1.517662 -6.967108 -5.794744 -7.831403 -0.618129 -36.345028 -6.879211 6.217214 -66.892998 19.289558 13.416849 10.896736 -4.431319 -19.205986 -5.433345 9.333155 0.175926 32.697689 33.223969 45.972237 42.535606 -35.736813 13.812997 -6.482414 13.148714 -27.915241 -12.206283 4.482011 0.395121 26.836817 -20.103577 -2.500256 -10.066394 0.748843 12.366339 -17.856462 -10.398013 4.018878 13.601227 2.127031 17.233974 -2.700333 1.489663 5.535975 
-27.688284 49.885246 8.760074 3.467186 -0.857802 46.940075 0.000000 0.000000 0.000000 10.166018 0.038449 0.377995 5.037179 -5.179691 -6.907032 4.129140 -1.586948 -7.053617 -5.527433 -7.748539 -0.554781 -35.908394 -7.407872 6.236555 -66.186134 18.333319 12.736640 9.910876 -4.782804 -18.054787 -5.420944 9.164269 0.197773 31.997007 33.304787 45.599514 42.227543 -34.986923 13.459589 -5.448061 13.827966 -26.906471 -13.145807 5.572354 0.534217 29.616234 -21.709808 -2.801655 -10.215223 -0.631689 11.925798 -17.417629 -10.759563 3.535809 13.825371 2.607554 16.825712 -4.080209 1.484429 3.715153 
-27.618561 49.719540 8.957903 3.379133 -0.662908 47.783016 0.000000 0.000000 0.000000 10.410166 -0.076839 0.425323 4.802667 -5.087173 -6.967848 4.597953 -1.646361 -7.121108 -5.240089 -7.622101 -0.533419 -35.439381 -7.840641 6.184490 -65.607277 17.427114 12.077709 8.807106 -5.183096 -16.974726 -5.339353 8.998340 0.178388 31.325241 33.375134 45.188698 41.802322 -34.346424 13.042684 -4.274213 14.662872 -25.899527 -14.163656 6.823057 0.754834 32.633583 -23.233541 -3.170694 -10.210026 -2.095619 11.113390 -17.157467 -11.044371 2.801540 14.663410 2.944863 16.890398 -5.770448 1.211668 1.882842 
